<?xml version="1.0" encoding="utf-8"?>
<!-- Generator: Adobe Illustrator 22.0.1, SVG Export Plug-In . SVG Version: 6.00 Build 0)  -->
<svg version="1.1" id="Calque_1" xmlns="http://www.w3.org/2000/svg" xmlns:xlink="http://www.w3.org/1999/xlink" x="0px" y="0px"
	 viewBox="0 0 35 28.3" style="enable-background:new 0 0 35 28.3;" xml:space="preserve">
<style type="text/css">
	.st0{fill:#FFCB3A;}
</style>
<title>logo</title>
<desc>Created with Sketch.</desc>
<g id="Home" transform="translate(-50.000000, -43.000000)">
	<g id="logo" transform="translate(50.000000, 43.000000)">
		<g id="Group-2" transform="translate(0.000000, 1.000000)">
			<path id="Shape" class="st0" d="M18.3,24.5c-7.5,0-13.6-6.1-13.6-13.6c0-0.8,0.7-1.5,1.5-1.5s1.5,0.7,1.5,1.5
				c0,5.8,4.7,10.5,10.5,10.5c0.8,0,1.5,0.7,1.5,1.5C19.8,23.8,19.1,24.5,18.3,24.5z"/>
			<path id="Shape_1_" class="st0" d="M18.3,24.5c-0.8,0-1.5-0.7-1.5-1.5c0-0.8,0.7-1.5,1.5-1.5c5.8,0,10.5-4.7,10.5-10.5
				c0-0.8,0.7-1.5,1.5-1.5c0.8,0,1.5,0.7,1.5,1.5C31.8,18.4,25.7,24.5,18.3,24.5z"/>
			<path id="Path" class="st0" d="M8.6,2.2c0,1.1-0.9,1.9-2,1.9c-1.1,0-1.9-0.9-1.9-1.9s0.9-2,1.9-2C7.7,0.2,8.6,1.1,8.6,2.2z"/>
			<path id="Path_1_" class="st0" d="M31.8,2.2c0,1.1-0.9,1.9-2,1.9s-1.9-0.9-1.9-1.9s0.9-2,1.9-2S31.8,1.1,31.8,2.2z"/>
		</g>
	</g>
</g>
</svg>
