<?xml version="1.0" encoding="UTF-8"?>
<svg width="751px" height="740px" viewBox="0 0 751 740" version="1.1" xmlns="http://www.w3.org/2000/svg" xmlns:xlink="http://www.w3.org/1999/xlink">
    <!-- Generator: Sketch 49.3 (51167) - http://www.bohemiancoding.com/sketch -->
    <title>carte_france</title>
    <desc>Created with Sketch.</desc>
    <defs></defs>
    <g id="Maquettes" stroke="none" stroke-width="1" fill="none" fill-rule="evenodd">
        <g id="Home" transform="translate(-474.000000, -78.000000)" stroke="#EDF2F7" stroke-width="2">
            <g id="Group" transform="translate(475.000000, 76.000000)">
                <path d="M420.589812,3.72226811 C423.974873,9.60334583 425.715761,16.0014822 427.769117,22.440537 C430.443687,30.8362311 433.475362,42.0701683 447.752133,34.6155954 C456.735563,29.9248686 463.200657,36.6912699 463.658198,44.2797573 C464.286852,54.6581297 471.488476,53.1962299 476.930611,57.0834698 C488.432378,65.2857319 500.391685,72.0223743 512.89409,78.2307986 C517.610855,80.5705822 514.891648,86.8571232 517.432303,89.6618876 C522.167668,94.8696731 510.982089,104.827703 522.271823,106.509074 C532.200094,107.989573 542.310638,106.996374 547.551902,95.7735959 C548.515342,93.7128008 550.483141,92.1244262 554.15835,87.7089681 C553.838443,106.278443 558.060469,117.787649 574.186005,126.391654 C586.383382,132.901386 592.625285,148.997163 611.395632,145.738577 C618.902283,144.432911 626.769758,150.436744 636.128893,146.675979 C641.187884,144.641223 650.189914,150.008962 652.95748,155.722646 C663.782234,178.071485 682.251273,177.524668 703.551115,179.819813 C717.154595,181.285433 734.797828,184.052999 747.940047,196.696758 C735.932381,214.265594 723.708965,232.448205 717.879965,255.020235 C713.404989,272.354721 712.396911,289.663168 710.529548,306.904658 C708.580348,324.904996 706.270323,328.397932 689.371059,323.811361 C683.545779,322.230426 675.458833,321.523656 678.650461,329.43577 C682.712534,339.505395 676.147004,345.252558 671.854301,348.239595 C654.683489,360.187743 648.382068,380.375351 634.287569,394.46985 C629.749356,399.004344 624.634566,405.421079 628.034506,412.563185 C632.230493,421.397821 625.348777,426.237342 622.10879,433.037222 C629.310414,436.9691 635.455601,435.146375 635.846185,427.807117 C636.776146,410.528429 649.873727,412.384632 659.671803,412.91657 C672.248605,413.601022 669.957179,423.313542 667.974501,432.360209 C667.420244,434.878546 671.017336,438.858782 673.498473,441.388278 C680.595941,448.630819 684.166994,454.947119 672.880979,461.944151 C667.130096,465.507764 668.848665,470.362164 674.052731,473.669108 C682.08016,478.769018 682.448425,488.459218 686.722529,495.71292 C692.960712,506.299603 682.738573,515.974925 659.608566,522.317263 C664.176537,529.939229 665.299931,538.885461 675.239362,542.79502 C683.144036,545.901092 678.178041,552.641454 676.935612,557.294983 C669.763747,584.118797 681.373389,600.631197 708.78866,601.014341 C713.538904,601.081299 719.810565,600.843228 716.704493,606.244446 C710.693221,616.663737 713.267355,630.609442 698.58884,638.108653 C682.448425,646.355553 665.861628,655.878361 658.146666,675.56751 C653.805605,686.660093 621.64009,689.390461 607.679505,680.712058 C594.005348,672.215928 579.386351,664.928748 564.320971,661.610645 C553.477618,659.222503 541.28024,661.510209 529.88263,657.500214 C524.972432,655.770486 518.633813,658.154907 516.53582,650.484583 C515.546341,646.868892 511.253637,646.746137 508.720422,648.271275 C492.081547,658.299981 474.107248,666.900267 459.622164,679.484509 C446.238156,691.10903 447.034203,711.188763 456.557011,734.240653 C438.195847,732.555562 421.780163,745.344395 401.748789,739.191769 C395.499446,737.272328 386.095674,736.956141 381.401227,732.596481 C365.253372,717.586899 344.411071,714.120002 325.075307,706.974176 C319.815444,705.028696 313.692576,704.604634 313.435907,713.580624 C313.283393,719.000441 308.629865,718.743771 305.237365,718.144876 C280.158158,713.714538 254.13039,712.680421 231.896866,697.752676 C229.054903,695.844395 225.074667,695.345935 221.529653,694.810277 C202.986217,692.009233 192.280498,676.839698 177.944209,667.421046 C174.629825,665.241215 174.674463,661.993789 177.337874,659.668885 C200.631554,639.343642 195.680438,610.232122 201.144893,584.330829 C202.975058,575.667306 196.900548,563.6708 210.890891,559.653365 C211.582783,559.456213 212.464387,556.915558 212.1296,556.569612 C196.714556,540.804902 212.200278,522.722727 208.472991,505.979697 C207.29008,500.664036 205.117689,492.368777 211.817133,489.069273 C218.077635,485.98552 220.127271,496.486648 226.46217,497.137621 C229.397129,486.149194 221.183707,484.400866 214.889727,480.878171 C203.830622,474.699505 204.117051,474.684626 211.307514,463.499047 C212.750815,461.248539 212.516465,457.495214 212.1296,454.560255 C210.001848,438.393801 207.859216,422.837402 188.631329,416.275592 C170.723986,410.167604 164.924745,391.099669 152.987757,378.493109 C151.116674,376.51415 151.027398,372.846381 150.112315,369.9635 C170.307363,363.807154 150.309467,356.508814 151.20595,350.523581 C152.571134,341.421116 147.601419,342.589148 142.799097,340.941256 C136.977536,338.943698 125.062867,340.621349 133.763589,328.133823 C130.635198,319.641413 126.048627,321.333943 120.130351,323.186427 C109.770577,326.430133 116.388185,316.297271 113.82521,314.191838 C110.116523,311.145283 104.882699,307.444036 100.411443,314.924647 C98.2576516,318.529179 95.9587864,320.619733 91.5135695,314.426188 C80.8338895,299.554241 58.7677585,288.88572 47.2883114,292.415855 C23.3957357,299.766272 21.1638277,279.67538 8.40103348,273.582271 C11.9014093,269.159373 15.8593262,270.9263 19.2815852,270.468759 C22.9605137,269.977739 27.2383374,269.944261 26.9519092,264.874109 C26.7435978,261.105905 22.9121557,261.343975 20.088792,260.187103 C11.0942025,256.500734 -0.727470455,256.11387 0.0350981298,241.085689 C0.782787327,226.343937 12.6490985,225.949633 21.8445596,222.583172 C40.8938949,215.604739 62.1825778,219.119994 80.8301696,207.190446 C95.9773856,197.500245 103.696068,214.258155 111.965287,223.196946 C118.103034,229.836873 120.565573,234.055179 130.717034,226.567128 C141.25164,218.788928 156.383977,221.456058 168.785946,224.948994 C175.991289,226.980031 179.86365,224.822519 185.488058,222.281864 C194.579363,218.178873 185.711249,214.533423 186.116712,210.850775 C189.416216,180.716296 168.655751,156.8386 163.972464,126.480931 C176.22192,130.025945 186.555654,136.364564 199.154775,130.275174 C205.57523,127.169102 204.094731,134.638555 203.707867,139.879819 C202.986217,149.677895 203.89014,158.192624 218.907161,156.741884 C229.545923,155.711487 241.880935,157.683005 251.336785,162.485328 C265.070459,169.46004 273.324799,162.779195 282.52398,155.503175 C284.893523,153.632092 288.174428,150.972402 285.823484,147.944447 C273.183445,131.666397 288.178147,127.667562 297.544722,121.950157 C306.516992,116.470823 316.590337,113.122961 327.080305,111.475069 C339.366959,109.548188 347.498544,101.654674 356.604728,93.8243962 C367.105856,84.7963281 366.670634,75.5636685 365.573279,63.7159565 C364.57264,52.9655994 367.72707,41.8953355 368.132534,30.9292273 C368.4636,22.0350737 372.856739,17.2997088 380.806051,14.9896839 C389.651847,12.4192698 398.512522,9.91953281 405.710425,3.72226811 L420.589812,3.72226811 Z" id="carte_france"></path>
            </g>
        </g>
    </g>
</svg>