<?xml version="1.0" encoding="UTF-8"?>
<svg width="213px" height="33px" viewBox="0 0 213 33" version="1.1" xmlns="http://www.w3.org/2000/svg" xmlns:xlink="http://www.w3.org/1999/xlink">
    <!-- Generator: Sketch 49.3 (51167) - http://www.bohemiancoding.com/sketch -->
    <title>logo</title>
    <desc>Created with Sketch.</desc>
    <defs></defs>
    <g id="Maquettes" stroke="none" stroke-width="1" fill="none" fill-rule="evenodd">
        <g id="Home" transform="translate(-50.000000, -43.000000)">
            <g id="logo" transform="translate(50.000000, 43.000000)">
                <g id="Group-2" transform="translate(0.000000, 1.000000)" fill="#FFCB3A">
                    <path d="M14,24.456 C6.52768421,24.456 0.449473684,18.3777895 0.449473684,10.9054737 C0.449473684,10.0735789 1.12368421,9.40010526 1.95484211,9.40010526 C2.786,9.40010526 3.46021053,10.0735789 3.46021053,10.9054737 C3.46021053,16.7169474 8.18852632,21.446 14,21.446 C14.8318947,21.446 15.5053684,22.1187368 15.5053684,22.9506316 C15.5053684,23.7817895 14.8318947,24.456 14,24.456 Z" id="Shape" fill-rule="nonzero"></path>
                    <path d="M14,24.456 C13.1688421,24.456 12.4946316,23.7817895 12.4946316,22.9506316 C12.4946316,22.1187368 13.1695789,21.446 14,21.446 C19.8107368,21.446 24.5405263,16.7169474 24.5405263,10.9054737 C24.5405263,10.0735789 25.2125263,9.40010526 26.0444211,9.40010526 C26.8763158,9.40010526 27.5505263,10.0735789 27.5505263,10.9054737 C27.5505263,18.3777895 21.4723158,24.456 14,24.456 Z" id="Shape" fill-rule="nonzero"></path>
                    <path d="M158.718,2.22 C158.718,3.3 157.818,4.164 156.738,4.164 C155.658,4.164 154.794,3.3 154.794,2.22 C154.794,1.14 155.658,0.24 156.738,0.24 C157.818,0.24 158.718,1.14 158.718,2.22 Z" id="Path"></path>
                    <path d="M178.726,2.22 C178.726,3.3 177.826,4.164 176.746,4.164 C175.666,4.164 174.802,3.3 174.802,2.22 C174.802,1.14 175.666,0.24 176.746,0.24 C177.826,0.24 178.726,1.14 178.726,2.22 Z" id="Path"></path>
                </g>
                <path d="M57.964,23.56 C57.964,24.532 57.208,25.288 56.236,25.288 C55.264,25.288 54.508,24.532 54.508,23.56 L54.508,16.396 C54.508,13.948 53.14,12.076 50.548,12.076 C47.884,12.076 46.336,14.128 46.336,16.432 L46.336,23.56 C46.336,24.532 45.58,25.288 44.608,25.288 C43.636,25.288 42.88,24.532 42.88,23.56 L42.88,2.428 C42.88,1.456 43.636,0.7 44.608,0.7 C45.544,0.7 46.336,1.456 46.336,2.428 L46.336,11.608 C47.344,10.06 49.36,8.944 51.484,8.944 C55.588,8.944 57.964,12.076 57.964,16.288 L57.964,23.56 Z M75.2219999,23.524 C75.2219999,24.496 74.4299999,25.288 73.4579999,25.288 C72.4859999,25.288 71.6939999,24.496 71.6939999,23.524 L71.6939999,23.2 C70.7219999,24.712 68.7419999,25.432 66.8339999,25.432 C63.6299999,25.432 60.8939999,23.164 60.8939999,20.14 C60.8939999,16.792 63.5579999,14.92 66.9059999,14.92 C68.7779999,14.92 70.5779999,15.46 71.7299999,16.576 L71.7299999,15.208 C71.7299999,12.796 70.4339999,11.932 67.5179999,11.932 C65.8259999,11.932 64.4579999,12.292 63.1259999,12.868 C62.9459999,12.94 62.7299999,12.976 62.5139999,12.976 C61.9739999,12.976 61.5059999,12.688 61.2539999,12.184 C61.1819999,12.004 61.1099999,11.788 61.1099999,11.608 C61.1099999,11.104 61.4339999,10.564 61.9379999,10.276 C63.7739999,9.232 66.3659999,8.944 67.8059999,8.944 C72.2339999,8.944 75.2219999,10.636 75.2219999,15.28 L75.2219999,23.524 Z M71.6939999,20.14 C71.6939999,18.16 69.6779999,17.62 67.9139999,17.62 C66.1859999,17.62 64.3499999,18.268 64.3499999,20.14 C64.3499999,22.012 66.2579999,22.732 67.8779999,22.732 C69.6779999,22.732 71.6939999,21.904 71.6939999,20.14 Z M95.3959999,17.188 C95.3959999,21.904 92.2279999,25.432 87.5479999,25.432 C85.4959999,25.432 83.2999999,24.316 82.3999999,22.66 L82.3999999,30.292 C82.3999999,31.264 81.6079999,32.02 80.6359999,32.02 C79.6639999,32.02 78.8719999,31.264 78.8719999,30.292 L78.8719999,10.852 C78.8719999,9.88 79.6639999,9.088 80.6359999,9.088 C81.6079999,9.088 82.3999999,9.88 82.3999999,10.852 L82.3999999,11.68 C83.4079999,10.06 85.5679999,8.944 87.5479999,8.944 C92.1199999,8.944 95.3959999,12.472 95.3959999,17.188 Z M91.8679999,17.188 C91.8679999,14.38 89.9959999,12.076 87.1159999,12.076 C84.2359999,12.076 82.3999999,14.272 82.3999999,17.188 C82.3999999,20.104 84.2359999,22.3 87.1159999,22.3 C89.9959999,22.3 91.8679999,19.996 91.8679999,17.188 Z M114.85,17.188 C114.85,21.904 111.682,25.432 107.002,25.432 C104.95,25.432 102.754,24.316 101.854,22.66 L101.854,30.292 C101.854,31.264 101.062,32.02 100.09,32.02 C99.1179998,32.02 98.3259998,31.264 98.3259998,30.292 L98.3259998,10.852 C98.3259998,9.88 99.1179998,9.088 100.09,9.088 C101.062,9.088 101.854,9.88 101.854,10.852 L101.854,11.68 C102.862,10.06 105.022,8.944 107.002,8.944 C111.574,8.944 114.85,12.472 114.85,17.188 Z M111.322,17.188 C111.322,14.38 109.45,12.076 106.57,12.076 C103.69,12.076 101.854,14.272 101.854,17.188 C101.854,20.104 103.69,22.3 106.57,22.3 C109.45,22.3 111.322,19.996 111.322,17.188 Z M130.272,10.672 C130.272,10.888 130.236,11.104 130.128,11.32 L124.368,24.208 C122.856,27.592 120.3,30.508 116.664,31.912 C116.484,31.984 116.268,32.056 116.088,32.056 C115.296,32.056 114.648,31.336 114.648,30.544 C114.648,29.896 115.044,29.428 115.62,29.176 C118.14,28.024 119.976,26.08 121.092,23.668 C120.552,22.48 115.44,11.464 115.44,10.708 C115.44,10.024 115.836,9.448 116.412,9.196 C116.592,9.124 116.808,9.088 117.024,9.088 C117.636,9.088 118.212,9.448 118.464,10.024 L122.892,19.888 L127.284,10.024 C127.536,9.448 128.112,9.088 128.724,9.088 C128.904,9.088 129.048,9.124 129.228,9.196 C129.84,9.412 130.272,9.988 130.272,10.672 Z M133.526,23.164 C133.526,24.28 132.59,25.216 131.474,25.216 C130.358,25.216 129.422,24.28 129.422,23.164 C129.422,22.048 130.358,21.112 131.474,21.112 C132.59,21.112 133.526,22.048 133.526,23.164 Z M151.684,21.724 C151.684,22.12 151.54,22.516 151.216,22.876 C149.956,24.28 147.544,25.432 145.24,25.432 C140.668,25.432 136.996,21.76 136.996,17.188 C136.996,12.616 140.668,8.944 145.24,8.944 C147.256,8.944 148.912,9.376 150.568,10.744 C150.892,11.032 151.108,11.5 151.108,11.968 C151.108,12.256 151,12.58 150.784,12.868 C150.496,13.228 150.064,13.444 149.632,13.444 C149.308,13.444 148.948,13.336 148.66,13.12 C147.58,12.328 146.428,12.004 145.24,12.004 C142.36,12.004 140.452,14.38 140.452,17.188 C140.452,19.996 142.36,22.372 145.24,22.372 C146.968,22.372 148.192,21.688 149.272,20.716 C149.56,20.464 149.884,20.356 150.208,20.356 C150.604,20.356 151.036,20.5 151.324,20.824 C151.576,21.076 151.684,21.4 151.684,21.724 Z M158.502,23.524 C158.502,24.496 157.71,25.288 156.738,25.288 C155.766,25.288 155.01,24.496 155.01,23.524 L155.01,10.852 C155.01,9.88 155.766,9.088 156.738,9.088 C157.71,9.088 158.502,9.88 158.502,10.852 L158.502,23.524 Z M172.808,10.852 C172.808,11.644 172.16,12.328 171.368,12.328 L168.344,12.328 L168.344,23.56 C168.344,24.532 167.552,25.288 166.58,25.288 C165.608,25.288 164.816,24.532 164.816,23.56 L164.816,12.328 L162.188,12.328 C161.396,12.328 160.748,11.644 160.748,10.852 C160.748,10.06 161.396,9.412 162.188,9.412 L164.816,9.412 L164.816,4.228 C164.816,3.256 165.608,2.5 166.58,2.5 C167.552,2.5 168.344,3.256 168.344,4.228 L168.344,9.412 L171.368,9.412 C172.16,9.412 172.808,10.06 172.808,10.852 Z M178.51,23.524 C178.51,24.496 177.718,25.288 176.746,25.288 C175.774,25.288 175.018,24.496 175.018,23.524 L175.018,10.852 C175.018,9.88 175.774,9.088 176.746,9.088 C177.718,9.088 178.51,9.88 178.51,10.852 L178.51,23.524 Z M197.711999,17.116 C197.711999,17.8 197.099999,18.268 196.415999,18.268 L185.291999,18.268 C185.471999,20.68 187.415999,22.48 190.007999,22.48 C191.843999,22.48 193.427999,21.724 194.687999,20.5 C194.939999,20.248 195.227999,20.176 195.551999,20.176 C195.983999,20.176 196.415999,20.392 196.703999,20.752 C196.883999,21.004 196.991999,21.292 196.991999,21.58 C196.991999,21.976 196.811999,22.408 196.487999,22.732 C194.975999,24.352 192.419999,25.432 189.899999,25.432 C185.327999,25.432 181.655999,21.76 181.655999,17.188 C181.655999,12.616 185.219999,8.944 189.791999,8.944 C194.327999,8.944 197.711999,12.472 197.711999,17.116 Z M194.219999,15.784 C193.895999,13.588 192.167999,11.896 189.791999,11.896 C187.379999,11.896 185.723999,13.48 185.363999,15.784 L194.219999,15.784 Z M212.953999,20.608 C212.953999,23.236 210.541999,25.432 206.185999,25.432 C204.421999,25.432 202.117999,24.856 200.425999,23.848 C199.885999,23.524 199.561999,23.02 199.561999,22.48 C199.561999,22.3 199.633999,22.12 199.705999,21.94 C199.921999,21.436 200.317999,21.112 200.821999,21.112 C201.037999,21.112 201.325999,21.184 201.541999,21.328 C202.873999,22.12 204.421999,22.588 205.969999,22.588 C207.733999,22.588 209.641999,22.084 209.641999,20.68 C209.641999,19.6 208.669999,19.204 204.997999,17.944 C201.973999,16.9 200.389999,15.532 200.389999,13.3 C200.389999,10.636 203.053999,8.944 206.545999,8.944 C208.921999,8.944 210.433999,9.448 211.945999,10.168 C212.557999,10.456 212.917999,10.924 212.917999,11.5 C212.917999,11.68 212.881999,11.824 212.809999,12.004 C212.593999,12.58 212.053999,12.94 211.441999,12.94 C211.261999,12.94 211.081999,12.904 210.937999,12.832 C209.641999,12.22 208.273999,11.86 206.833999,11.86 C204.925999,11.86 203.737999,12.292 203.737999,13.444 C203.737999,14.596 204.673999,14.848 207.373999,15.712 C210.649999,16.792 212.953999,17.908 212.953999,20.608 Z" id="happy.cities" fill="#323B45"></path>
            </g>
        </g>
    </g>
</svg>