<?xml version="1.0" encoding="UTF-8"?>
<svg width="31px" height="31px" viewBox="0 0 31 31" version="1.1" xmlns="http://www.w3.org/2000/svg" xmlns:xlink="http://www.w3.org/1999/xlink">
    <!-- Generator: Sketch 49.3 (51167) - http://www.bohemiancoding.com/sketch -->
    <title>about</title>
    <desc>Created with Sketch.</desc>
    <defs></defs>
    <g id="Maquettes" stroke="none" stroke-width="1" fill="none" fill-rule="evenodd">
        <g id="Home" transform="translate(-1358.000000, -41.000000)">
            <g id="mini-menu" transform="translate(1303.000000, 42.000000)">
                <g id="about" transform="translate(56.000000, 0.000000)">
                    <circle id="Oval-3" stroke="#323B45" stroke-width="2" cx="14.5" cy="14.5" r="14.5"></circle>
                    <path d="M19.3365,11.185 C19.3365,12.382 18.8535,13.18 17.6145,14.125 C16.2705,15.154 15.8715,15.385 15.8715,16.519 L15.8715,16.855 C15.8715,17.527 15.3885,18.031 14.6325,18.031 C13.8975,18.031 13.4565,17.506 13.4565,16.876 L13.4565,16.456 C13.4565,14.734 14.0655,14.104 15.1365,13.264 C16.0395,12.55 16.8165,12.151 16.8165,11.311 C16.8165,10.408 15.9555,10.03 14.8005,10.03 C13.7295,10.03 13.1835,10.219 12.2175,10.618 C12.0495,10.681 11.8395,10.723 11.6505,10.723 C11.0625,10.723 10.5585,10.303 10.5585,9.673 C10.5585,9.148 10.9575,8.77 11.5455,8.476 C12.5535,7.951 13.9605,7.762 14.9055,7.762 C17.5305,7.762 19.3365,8.938 19.3365,11.185 Z M16.1235,20.698 C16.1235,21.496 15.4725,22.147 14.6745,22.147 C13.8975,22.147 13.2465,21.496 13.2465,20.698 C13.2465,19.9 13.8975,19.27 14.6745,19.27 C15.4725,19.27 16.1235,19.9 16.1235,20.698 Z" id="?" fill="#323B45"></path>
                </g>
            </g>
        </g>
    </g>
</svg>