<?xml version="1.0" encoding="UTF-8"?>
<svg width="1440px" height="881px" viewBox="0 0 1440 881" version="1.1" xmlns="http://www.w3.org/2000/svg" xmlns:xlink="http://www.w3.org/1999/xlink">
    <!-- Generator: Sketch 49.3 (51167) - http://www.bohemiancoding.com/sketch -->
    <title>bg-city</title>
    <desc>Created with Sketch.</desc>
    <defs></defs>
    <g id="Maquettes" stroke="none" stroke-width="1" fill="none" fill-rule="evenodd">
        <g id="Page-ville" transform="translate(0.000000, -19.000000)" stroke="#F7F7F7">
            <g id="bg-city" transform="translate(-92.000000, 20.000000)">
                <path d="M387,240 L962,240" id="Stroke-1" stroke-width="2"></path>
                <path d="M457,208 L488,208" id="Stroke-3" stroke-width="2"></path>
                <path d="M509,265 L528,265" id="Stroke-5" stroke-width="2"></path>
                <path d="M789,265 L808,265" id="Stroke-7" stroke-width="2"></path>
                <path d="M525,280 L544,280" id="Stroke-9" stroke-width="2"></path>
                <path d="M807,280 L826,280" id="Stroke-11" stroke-width="2"></path>
                <path d="M634,265 L653,265" id="Stroke-13" stroke-width="2"></path>
                <path d="M666,265 L685,265" id="Stroke-15" stroke-width="2"></path>
                <path d="M649,280 L668,280" id="Stroke-17" stroke-width="2"></path>
                <path d="M492,280 L511,280" id="Stroke-19" stroke-width="2"></path>
                <path d="M771,280 L790,280" id="Stroke-21" stroke-width="2"></path>
                <path d="M833,208 L864,208" id="Stroke-23" stroke-width="2"></path>
                <path d="M783,81 L804,62" id="Stroke-25" stroke-width="2"></path>
                <path d="M660,31 L660.223,0" id="Stroke-27" stroke-width="3"></path>
                <path d="M538,86 L517,65" id="Stroke-29" stroke-width="2"></path>
                <path d="M509,206.831978 L575.888908,206.831978 C573.149454,206.831978 580.051178,182.632889 580.718934,180.530448 C595.914524,132.697594 646.045811,104.482844 694.603269,122.463381 C707.139631,127.105103 718.628346,134.538397 727.736261,144.272696 C743.774214,161.412257 751.459313,184.87082 751.459313,208 L815,208" id="Stroke-31" stroke-width="2"></path>
                <path d="M552,99 L601,148" id="Stroke-33" stroke-width="2"></path>
                <path d="M660,116 L660,53" id="Stroke-35" stroke-width="2"></path>
                <path d="M724,140 L769,95" id="Stroke-37" stroke-width="2"></path>
                <path d="M387,402 L387,337.625776 C387,337.625776 393.350043,285 447.675022,285 C462.843777,285 502,301.99146 502,342.917702 L502,402" id="Stroke-39" stroke-width="2"></path>
                <path d="M534,402 L534,337.625776 C534,337.625776 540.350043,285 594.675022,285 C609.843777,285 649,301.99146 649,342.917702 L649,402" id="Stroke-41" stroke-width="2"></path>
                <path d="M672,402 L672,337.625776 C672,337.625776 678.350043,285 732.675022,285 C747.843777,285 787,301.99146 787,342.917702 L787,402" id="Stroke-43" stroke-width="2"></path>
                <path d="M815,404 C815,381.787636 815,359.577635 815,337.365271 C815,309.990264 827.006587,288 856,288" id="Stroke-45" stroke-width="2"></path>
                <path d="M322,263 C339.120773,263 353,249.121314 353,232.001208 C353,214.878686 339.120773,201 322,201 C304.879227,201 291,214.878686 291,232.001208 C291,249.121314 304.879227,263 322,263 Z" id="Stroke-47" stroke-width="2"></path>
                <polygon id="Stroke-49" stroke-width="2" points="280 319 358 319 358 279 280 279"></polygon>
                <path d="M286,337 L348,337" id="Stroke-51" stroke-width="2"></path>
                <polyline id="Stroke-53" stroke-width="2" points="343 516.695616 343 354 296.198585 354 296.198585 723 226 723"></polyline>
                <path d="M318,354 L318,432" id="Stroke-55" stroke-width="2"></path>
                <polyline id="Stroke-57" stroke-width="2" points="335 640 335 538 482 538"></polyline>
                <path d="M375,614 L375,573" id="Stroke-59" stroke-width="2"></path>
                <path d="M410,614 L410,573" id="Stroke-61" stroke-width="2"></path>
                <path d="M445,614 L445,573" id="Stroke-63" stroke-width="2"></path>
                <path d="M901,614 L901,573" id="Stroke-65" stroke-width="2"></path>
                <path d="M935,614 L935,573" id="Stroke-67" stroke-width="2"></path>
                <path d="M968,614 L968,573" id="Stroke-69" stroke-width="2"></path>
                <path d="M968,677 L968,636" id="Stroke-71" stroke-width="2"></path>
                <path d="M935,677 L935,636" id="Stroke-73" stroke-width="2"></path>
                <path d="M898,677 L898,636" id="Stroke-75" stroke-width="2"></path>
                <path d="M898,743 L898,702" id="Stroke-77" stroke-width="2"></path>
                <path d="M898,821 L898,780" id="Stroke-79" stroke-width="2"></path>
                <path d="M935,743 L935,702" id="Stroke-81" stroke-width="2"></path>
                <path d="M935,821 L935,780" id="Stroke-83" stroke-width="2"></path>
                <path d="M968,743 L968,702" id="Stroke-85" stroke-width="2"></path>
                <path d="M968,821 L968,780" id="Stroke-87" stroke-width="2"></path>
                <path d="M486,606 L861,606" id="Stroke-89" stroke-width="2"></path>
                <path d="M865,824 L865,538" id="Stroke-91" stroke-width="2"></path>
                <polyline id="Stroke-93" stroke-width="2" points="486 643 486 486 805 486"></polyline>
                <path d="M581,824 L581,607.074029 C581.002358,565.519203 617.963042,535.827444 656.729792,530.054634 C676.273496,527.143538 696.675436,530.320348 714.488524,538.825542 C740.858025,551.415206 762.240804,576.799109 761.997952,607.074029 C761.453303,674.85928 761.997952,824 761.997952,824" id="Stroke-95" stroke-width="2"></path>
                <polyline id="Stroke-97" stroke-width="2" points="729 828 729 754 613 754 613 828"></polyline>
                <path d="M121,182 L256.945497,182 C261.053573,182 261.820913,168.562712 261.965959,165.619394 C262.567198,153.493852 255.153478,147.567818 243.732278,145.607151 C243.732278,145.607151 243.732278,145.607151 243.732278,145.607151 C240.157597,144.992994 235.197961,145.366124 232.159014,143.328977 C229.087315,141.27329 227.690663,136.698401 225.744239,133.722637 C212.83047,113.974597 183.629443,108.125043 168.626543,129.717871 C168.626543,129.717871 168.626543,129.717871 168.626543,129.717871 C168.626543,129.717871 168.626543,129.717871 168.626543,129.717871 C165.243697,134.584774 165.239018,140.267463 158.955253,141.428567 C153.431809,142.448299 147.477906,139.970814 141.942765,141.03458 C123.119543,144.659264 121,166.534835 121,182 Z" id="Stroke-99" stroke-width="2"></path>
                <path d="M272.03243,140 L319.971691,140 C319.971691,140 322.260023,93.8710668 285.689215,107.484745 C272.03243,92.4704243 245.082536,77.6193542 225,111.861753" id="Stroke-101" stroke-width="2"></path>
                <path d="M173,433.989631 C173,433.989631 204.823877,422.351469 210.196647,445 C225.711354,433.989631 227.402869,430.42376 246,433.989631" id="Stroke-103" stroke-width="2"></path>
                <path d="M441,459.621376 C441,459.621376 422.875915,454.095712 418.257619,476 C404.921532,465.350632 407.98585,459.87195 392,463.319944" id="Stroke-105" stroke-width="2"></path>
                <path d="M967,397.79915 C967,397.79915 943.744264,389.370441 939.25342,409 C926.285372,399.457756 926.544685,401.3386 911,404.431232" id="Stroke-107" stroke-width="2"></path>
                <path d="M1249,187.79915 C1249,187.79915 1225.74426,179.370441 1221.25342,199 C1208.28537,189.457756 1208.54469,191.3386 1193,194.431232" id="Stroke-109" stroke-width="2"></path>
                <path d="M157,309.282632 C166.012537,309.885469 180.830448,312.979176 181.601791,325 C180.837612,313.104874 192.362388,308 201,308" id="Stroke-111" stroke-width="2"></path>
                <path d="M608,717.831706 L639.995884,717.831706 L639.995884,660.209095 C639.995884,660.209095 640.674708,641 624.596411,641 C618.237532,641 608,646.439578 608,659.947397 L608,719" id="Stroke-113" stroke-width="2"></path>
                <path d="M657,717.831706 L688.995884,717.831706 L688.995884,660.209095 C688.995884,660.209095 689.674708,641 673.596411,641 C667.237532,641 657,646.439578 657,659.947397 L657,719" id="Stroke-115" stroke-width="2"></path>
                <path d="M703,717.831706 L734.995884,717.831706 L734.995884,660.209095 C734.995884,660.209095 735.674708,641 719.596411,641 C713.237532,641 703,646.439578 703,659.947397 L703,719" id="Stroke-117" stroke-width="2"></path>
                <polyline id="Stroke-119" stroke-width="2" points="535 483.472494 535 432 807.059533 432 807.059533 486.813455 863.922579 486.813455 863.922579 538.611321 1006 538.611321 1006 826"></polyline>
                <path d="M200,855 L457,855" id="Stroke-141" stroke-width="2"></path>
                <path d="M1351,855 L1519,855" id="Stroke-143" stroke-width="2"></path>
                <g id="Group-148" transform="translate(1124.000000, 181.000000)" stroke-width="2">
                    <polygon id="Stroke-147" points="0.404 28.0260833 6.9392 28.0260833 6.9392 0.0749166667 0.404 0.0749166667"></polygon>
                </g>
                <g id="Group-152" transform="translate(1068.000000, 181.000000)" stroke-width="2">
                    <polygon id="Stroke-151" points="0.8559 28.0260833 8.208 28.0260833 8.208 0.0749166667 0.8559 0.0749166667"></polygon>
                </g>
                <g id="Group-156" transform="translate(1099.000000, 181.000000)" stroke-width="2">
                    <polygon id="Stroke-155" points="0.094 35.505 5.54 35.505 5.54 0.072 0.094 0.072"></polygon>
                </g>
                <path d="M1037.94802,171 L1167.95653,171 C1167.95653,171 1179.12695,154.373798 1164.33504,140.134793 C1160.30325,136.821711 1150.18109,134.806272 1140.80601,139.297755 C1137.44539,124.025311 1133.66737,108 1105.84567,108 C1102.61787,108 1080.72053,110.574244 1074.79617,128.701503 C1059.46115,128.701503 1027.86381,133.377695 1037.94802,171 Z" id="Stroke-157" stroke-width="2"></path>
                <path d="M1166.11073,131 L1216.28933,131 C1217.59097,131 1219.39828,123.401957 1219.57152,122.508917 C1220.47986,117.890075 1219.97184,113.043172 1217.7806,108.873251 C1213.98571,101.644908 1206.01201,97.7894714 1198.27476,97.196512 C1192.42207,96.7451906 1186.76603,98.1831772 1181.78188,101.340026 C1173.61387,89.668088 1149.87771,75.6987323 1129,101.908979" id="Stroke-159" stroke-width="2"></path>
                <path d="M373,814 L373,723" id="Stroke-161" stroke-width="2"></path>
                <path d="M370,751 L353,737" id="Stroke-163" stroke-width="2"></path>
                <path d="M392,737 L373,754" id="Stroke-165" stroke-width="2"></path>
                <path d="M373.21952,778.225855 C373.21952,778.225855 395.630014,781.663454 404.336674,771.992309 C413.043333,762.318726 417.733352,745.030701 413.043333,740.880697 C408.355677,736.730693 406.347357,738.114028 406.347357,738.114028 C406.347357,738.114028 417.733352,730.506907 414.383001,722.206899 C411.035013,713.90933 400.988685,704.265023 388.263022,708.415027 C379.556362,698.002201 370.849702,694.467012 359.463706,702.113169 C353.436382,706.19974 352.767729,712.565031 352.767729,712.565031 C352.767729,712.565031 337.36273,715.292665 330.66439,728.433125 C323.968414,741.571145 332.004058,742.95448 332.004058,742.95448 C332.004058,742.95448 334.137603,788.087299 369.23832,780.038584" id="Stroke-167" stroke-width="2"></path>
                <path d="M511,814 L511,723" id="Stroke-169" stroke-width="2"></path>
                <path d="M510,751 L493,737" id="Stroke-171" stroke-width="2"></path>
                <path d="M530,737 L511,754" id="Stroke-173" stroke-width="2"></path>
                <path d="M512.21952,778.225855 C512.21952,778.225855 534.630014,781.663454 543.336674,771.992309 C552.043333,762.318726 556.733352,745.030701 552.043333,740.880697 C547.355677,736.730693 545.347357,738.114028 545.347357,738.114028 C545.347357,738.114028 556.733352,730.506907 553.383001,722.206899 C550.035013,713.90933 539.988685,704.265023 527.263022,708.415027 C518.556362,698.002201 509.849702,694.467012 498.463706,702.113169 C492.436382,706.19974 491.767729,712.565031 491.767729,712.565031 C491.767729,712.565031 476.36273,715.292665 469.66439,728.433125 C462.968414,741.571145 471.004058,742.95448 471.004058,742.95448 C471.004058,742.95448 473.137603,788.087299 508.23832,780.038584" id="Stroke-175" stroke-width="2"></path>
                <path d="M1037.17167,857 L1037.17167,604.197311 C1037.17167,598.6749 1038.69953,592.7226 1041.20691,587.840296 C1042.56605,585.199554 1044.62819,583.040664 1044.97735,579.979481 C1045.53272,575.11135 1042.64807,570.467611 1040.03758,566.631684 C1038.42067,564.25785 1037.10606,562.037548 1036,559.384995 L1036,384 L1246.82833,384 L1246.82833,555.357744 C1245.45278,558.234689 1244.17801,561.168323 1242.98524,564.127939 C1241.35896,568.171724 1238.24466,574.060249 1240.57863,578.311892 C1244.21316,584.932645 1248,592.828891 1248,600.562157 L1248,857 L1036.59287,857" id="Stroke-177" stroke-width="2"></path>
                <path d="M1143,386 L1143,859" id="Stroke-179" stroke-width="2"></path>
                <path d="M1036,408 L1248,408" id="Stroke-181" stroke-width="2"></path>
                <path d="M1036,434 L1248,434" id="Stroke-183" stroke-width="2"></path>
                <path d="M1036,458 L1248,458" id="Stroke-185" stroke-width="2"></path>
                <path d="M1036,480 L1248,480" id="Stroke-187" stroke-width="2"></path>
                <path d="M1036,506 L1248,506" id="Stroke-189" stroke-width="2"></path>
                <path d="M1036,527 L1248,527" id="Stroke-191" stroke-width="2"></path>
                <path d="M1036,548 L1248,548" id="Stroke-193" stroke-width="2"></path>
                <path d="M1046,574 L1242,574" id="Stroke-195" stroke-width="2"></path>
                <path d="M1039,598 L1248,598" id="Stroke-197" stroke-width="2"></path>
                <path d="M1039,622 L1248,622" id="Stroke-199" stroke-width="2"></path>
                <path d="M1039,643 L1248,643" id="Stroke-201" stroke-width="2"></path>
                <path d="M1039,667 L1248,667" id="Stroke-203" stroke-width="2"></path>
                <path d="M1039,691 L1248,691" id="Stroke-205" stroke-width="2"></path>
                <path d="M1039,716 L1248,716" id="Stroke-207" stroke-width="2"></path>
                <path d="M1039,737 L1248,737" id="Stroke-209" stroke-width="2"></path>
                <path d="M1039,762 L1248,762" id="Stroke-211" stroke-width="2"></path>
                <path d="M1039,787 L1248,787" id="Stroke-213" stroke-width="2"></path>
                <path d="M1039,809 L1248,809" id="Stroke-215" stroke-width="2"></path>
                <path d="M1039,834 L1248,834" id="Stroke-217" stroke-width="2"></path>
                <path d="M1138,363 C1149.04602,363 1158,354.046532 1158,343.001153 C1158,331.955775 1149.04602,323 1138,323 C1126.95398,323 1118,331.955775 1118,343.001153 C1118,354.046532 1126.95398,363 1138,363 Z" id="Stroke-219" stroke-width="2"></path>
                <g id="Group-224" transform="translate(1196.000000, 337.000000)" stroke-width="2">
                    <polygon id="Stroke-223" points="0.4346875 38.9471278 12.6319375 38.9471278 12.6319375 0.0394301471 0.4346875 0.0394301471"></polygon>
                </g>
                <g id="Group-228" transform="translate(1174.000000, 328.000000)" stroke-width="2">
                    <polygon id="Stroke-227" points="0.2510625 45.952839 12.4483125 45.952839 12.4483125 0.300637381 0.2510625 0.300637381"></polygon>
                </g>
                <g id="Group-232" transform="translate(1097.000000, 328.000000)" stroke-width="2">
                    <polygon id="Stroke-231" points="0.739375 45.952839 12.936625 45.952839 12.936625 0.300637381 0.739375 0.300637381"></polygon>
                </g>
                <g id="Group-236" transform="translate(1074.000000, 338.000000)" stroke-width="2">
                    <polygon id="Stroke-235" points="0.0294 32.9635862 8.4294 32.9635862 8.4294 0.614482759 0.0294 0.614482759"></polygon>
                </g>
                <path d="M1280.17167,566 L1280.17167,476.307852 C1280.17167,470.807807 1281.69953,464.877261 1284.20691,460.017084 C1285.56605,457.384684 1287.62819,455.234538 1287.97735,452.185753 C1288.53272,447.337338 1285.64807,442.714759 1283.03758,438.894368 C1281.42067,436.530148 1280.10606,434.318838 1279,431.674676 L1279,257 L1489.82833,257 L1489.82833,427.663736 C1488.45278,430.531381 1487.17801,433.453134 1485.98524,436.400763 C1484.35896,440.42817 1481.24466,446.292847 1483.57863,450.52727 C1487.21316,457.121209 1491,464.985474 1491,472.685068 L1491,566" id="Stroke-237" stroke-width="2"></path>
                <path d="M1385,257 L1385,566" id="Stroke-239" stroke-width="2"></path>
                <path d="M1279,282 L1491,282" id="Stroke-241" stroke-width="2"></path>
                <path d="M1279,308 L1491,308" id="Stroke-243" stroke-width="2"></path>
                <path d="M1279,332 L1491,332" id="Stroke-245" stroke-width="2"></path>
                <path d="M1279,354 L1491,354" id="Stroke-247" stroke-width="2"></path>
                <path d="M1279,380 L1491,380" id="Stroke-249" stroke-width="2"></path>
                <path d="M1279,401 L1491,401" id="Stroke-251" stroke-width="2"></path>
                <path d="M1279,422 L1491,422" id="Stroke-253" stroke-width="2"></path>
                <path d="M1284,447 L1483,447" id="Stroke-255" stroke-width="2"></path>
                <path d="M1281,473 L1488,473" id="Stroke-257" stroke-width="2"></path>
                <path d="M1281,495 L1488,495" id="Stroke-259" stroke-width="2"></path>
                <path d="M1281,519 L1488,519" id="Stroke-261" stroke-width="2"></path>
                <path d="M1384,236 C1395.04602,236 1404,227.046532 1404,216.001153 C1404,204.955775 1395.04602,196 1384,196 C1372.95398,196 1364,204.955775 1364,216.001153 C1364,227.046532 1372.95398,236 1384,236 Z" id="Stroke-263" stroke-width="2"></path>
                <g id="Group-268" transform="translate(1439.000000, 209.000000)" stroke-width="2">
                    <polygon id="Fill-265" points="0.80275 35.937 13 35.937 13 0.414 0.80275 0.414"></polygon>
                </g>
                <g id="Group-272" transform="translate(1415.000000, 200.000000)" stroke-width="2">
                    <polygon id="Stroke-271" points="0.619125 45.9356 12.816375 45.9356 12.816375 0.6785 0.619125 0.6785"></polygon>
                </g>
                <g id="Group-276" transform="translate(1340.000000, 200.000000)" stroke-width="2">
                    <polygon id="Stroke-275" points="0.2949375 45.9356 12.4921875 45.9356 12.4921875 0.6785 0.2949375 0.6785"></polygon>
                </g>
                <g id="Group-280" transform="translate(1319.000000, 213.000000)" stroke-width="2">
                    <polygon id="Stroke-279" points="0.3465 32.9354667 8.7465 32.9354667 8.7465 0.175580952 0.3465 0.175580952"></polygon>
                </g>
                <path d="M343.5,820 C350.956162,820 357,813.955599 357,806.498743 C357,799.044401 350.956162,793 343.5,793 C336.043838,793 330,799.044401 330,806.498743 C330,813.955599 336.043838,820 343.5,820 Z" id="Stroke-281" stroke-width="2"></path>
                <path d="M548.5,820 C555.956162,820 562,813.955599 562,806.498743 C562,799.044401 555.956162,793 548.5,793 C541.043838,793 535,799.044401 535,806.498743 C535,813.955599 541.043838,820 548.5,820 Z" id="Stroke-283" stroke-width="2"></path>
                <path d="M442.5,820 C449.956162,820 456,813.955599 456,806.498743 C456,799.044401 449.956162,793 442.5,793 C435.043838,793 429,799.044401 429,806.498743 C429,813.955599 435.043838,820 442.5,820 Z" id="Stroke-285" stroke-width="2"></path>
                <path d="M325,833 L547,833" id="Stroke-287" stroke-width="2"></path>
                <g id="Group-297" transform="translate(1279.000000, 698.000000)" stroke-width="2">
                    <path d="M48.3688306,134.5017 L48.3688306,30.0253292" id="Stroke-289"></path>
                    <path d="M46.1820459,60.2598328 L27.9580644,44.5871853" id="Stroke-291"></path>
                    <path d="M70.2371427,43.8420492 L48.3692962,61.7529653" id="Stroke-293"></path>
                    <path d="M49.4901631,87.1252534 C49.4901631,87.1252534 73.881939,90.834248 83.3583162,80.3985293 C92.8346934,69.9604269 97.9361044,51.3058049 92.8346934,46.8268841 C87.7309541,42.3503469 85.5446352,43.842526 85.5446352,43.842526 C85.5446352,43.842526 97.9361044,35.6331575 94.2922394,26.6776994 C90.6483744,17.7222414 79.7144512,7.31751039 65.8631077,11.7940476 C56.3867305,0.559798504 46.9103532,-3.25646136 34.518884,4.99581325 C27.9575988,9.40322393 27.2288258,16.2705848 27.2288258,16.2705848 C27.2288258,16.2705848 10.4647186,19.2144204 3.17466038,33.3948889 C-4.11539788,47.5729736 4.63220636,49.0651527 4.63220636,49.0651527 C4.63220636,49.0651527 6.95356953,97.765968 45.157107,89.0822486" id="Stroke-295"></path>
                </g>
                <polyline id="Stroke-298" stroke-width="2" points="1327 830 1458 830 1458 631"></polyline>
                <path d="M1456,630 C1468.70244,630 1479,619.926822 1479,607.501155 C1479,595.073178 1468.70244,585 1456,585 C1443.29756,585 1433,595.073178 1433,607.501155 C1433,619.926822 1443.29756,630 1456,630 Z" id="Stroke-300" stroke-width="2"></path>
                <path d="M1498,677 C1510.70244,677 1521,666.926822 1521,654.501155 C1521,642.073178 1510.70244,632 1498,632 C1485.29756,632 1475,642.073178 1475,654.501155 C1475,666.926822 1485.29756,677 1498,677 Z" id="Stroke-302" stroke-width="2"></path>
                <path d="M1414,677 C1426.70244,677 1437,666.926822 1437,654.501155 C1437,642.073178 1426.70244,632 1414,632 C1401.29756,632 1391,642.073178 1391,654.501155 C1391,666.926822 1401.29756,677 1414,677 Z" id="Stroke-304" stroke-width="2"></path>
                <path d="M1493,748 C1504.04643,748 1513,739.045876 1513,727.998772 C1513,716.954124 1504.04643,708 1493,708 C1481.95357,708 1473,716.954124 1473,727.998772 C1473,739.045876 1481.95357,748 1493,748 Z" id="Stroke-306" stroke-width="2"></path>
                <path d="M1423,748 C1434.04643,748 1443,739.045876 1443,727.998772 C1443,716.954124 1434.04643,708 1423,708 C1411.95357,708 1403,716.954124 1403,727.998772 C1403,739.045876 1411.95357,748 1423,748 Z" id="Stroke-308" stroke-width="2"></path>
                <polyline id="Stroke-310" stroke-width="2" points="267 830 136 830 136 631"></polyline>
                <path d="M137,630 C124.297555,630 114,619.926822 114,607.501155 C114,595.073178 124.297555,585 137,585 C149.702445,585 160,595.073178 160,607.501155 C160,619.926822 149.702445,630 137,630 Z" id="Stroke-312" stroke-width="2"></path>
                <path d="M94,677 C81.2975555,677 71,666.926822 71,654.501155 C71,642.073178 81.2975555,632 94,632 C106.702445,632 117,642.073178 117,654.501155 C117,666.926822 106.702445,677 94,677 Z" id="Stroke-314" stroke-width="2"></path>
                <path d="M175,677 C162.297555,677 152,666.926822 152,654.501155 C152,642.073178 162.297555,632 175,632 C187.702445,632 198,642.073178 198,654.501155 C198,666.926822 187.702445,677 175,677 Z" id="Stroke-316" stroke-width="2"></path>
                <path d="M103,748 C91.9535741,748 83,739.045876 83,727.998772 C83,716.954124 91.9535741,708 103,708 C114.046426,708 123,716.954124 123,727.998772 C123,739.045876 114.046426,748 103,748 Z" id="Stroke-318" stroke-width="2"></path>
                <path d="M170,748 C158.953574,748 150,739.045876 150,727.998772 C150,716.954124 158.953574,708 170,708 C181.046426,708 190,716.954124 190,727.998772 C190,739.045876 181.046426,748 170,748 Z" id="Stroke-320" stroke-width="2"></path>
            </g>
        </g>
    </g>
</svg>